{
	"asset":{
		"version":"2.0",
		"generator":"Blender Foundation Blender (stable FBX IO) 4.4.3"
	},
	"scenes":[{
		"nodes":[0,
		1,
		2,
		3,
		4,
		5,
		6,
		7]
	}],
	"nodes":[{
		"name":"Mesh.001",
		"mesh":0,
		"translation":[0.0005404726834967732,
		-0.036144763231277469,
		0.002047731773927808],
		"rotation":[0.02072453685104847,
		0.013207081705331803,
		0.020166568458080293,
		0.9994945526123047],
		"scale":[100.0,
		100.0,
		100.0]
	},
	{
		"name":"Mesh_2_2.001",
		"mesh":1,
		"translation":[-3.152791738510132,
		-0.5114116072654724,
		-1.9409871101379395],
		"rotation":[0.11488870531320572,
		-6.533643764905506e-11,
		7.556454593993234e-12,
		0.9933783411979675],
		"scale":[100.00001525878906,
		100.00001525878906,
		100.0]
	},
	{
		"name":"Mesh_2.001",
		"mesh":2,
		"translation":[0.0005404727999120951,
		-0.05161689221858978,
		-0.0028883337508887054],
		"rotation":[0.000013911231690144632,
		0.004581458400934935,
		-0.003054356900975108,
		-0.999984860420227],
		"scale":[100.00001525878906,
		100.00001525878906,
		100.00001525878906]
	},
	{
		"name":"Mesh_1_2.001",
		"mesh":3,
		"translation":[-3.1877777576446535,
		-0.5114122629165649,
		1.877099871635437],
		"rotation":[0.11488870531320572,
		-3.674944376585998e-11,
		-4.25023948327774e-12,
		-0.9933783411979675],
		"scale":[100.00001525878906,
		100.00001525878906,
		100.0]
	},
	{
		"name":"Mesh_1.001",
		"mesh":4,
		"translation":[0.0005404727999120951,
		-0.05161689221858978,
		-0.0028883337508887054],
		"rotation":[0.000013911231690144632,
		0.004581458400934935,
		-0.003054356900975108,
		-0.999984860420227],
		"scale":[100.00001525878906,
		100.00001525878906,
		100.00001525878906]
	},
	{
		"name":"Cinema_4D_编辑器",
		"camera":0,
		"translation":[0.1701246052980423,
		1.3553416728973389,
		-0.005355505738407373],
		"rotation":[0.5507677793502808,
		0.4490726590156555,
		0.5063381791114807,
		-0.488477498292923],
		"scale":[1.0,
		1.0,
		1.0]
	},
	{
		"name":"Camera.001",
		"camera":1,
		"translation":[-0.04999999701976776,
		1.7999999523162842,
		0.0],
		"rotation":[0.5,
		0.4999999701976776,
		0.4999999701976776,
		-0.5],
		"scale":[1.0,
		1.0,
		1.0]
	},
	{
		"name":"Camera",
		"camera":2,
		"translation":[7.358891487121582,
		4.958309173583984,
		6.925790786743164],
		"rotation":[-0.20997297763824464,
		0.38577985763549807,
		0.0906284749507904,
		0.8937962651252747],
		"scale":[1.0,
		1.0,
		1.0]
	}],
	"meshes":[{
		"name":"Mesh.001",
		"primitives":[{
			"attributes":{
				"POSITION":1,
				"NORMAL":2,
				"TEXCOORD_0":3
			},
			"indices":0,
			"material":0
		}]
	},
	{
		"name":"Mesh_2_2.001",
		"primitives":[{
			"attributes":{
				"POSITION":9,
				"NORMAL":10,
				"TEXCOORD_0":11
			},
			"indices":8,
			"material":0
		}]
	},
	{
		"name":"Mesh_2.001",
		"primitives":[{
			"attributes":{
				"POSITION":15,
				"NORMAL":16
			},
			"indices":14,
			"material":0
		}]
	},
	{
		"name":"Mesh_1_2.001",
		"primitives":[{
			"attributes":{
				"POSITION":18,
				"NORMAL":19,
				"TEXCOORD_0":20
			},
			"indices":17,
			"material":0
		}]
	},
	{
		"name":"Mesh_1.001",
		"primitives":[{
			"attributes":{
				"POSITION":24,
				"NORMAL":25
			},
			"indices":23,
			"material":0
		}]
	}],
	"cameras":[{
		"type":"perspective",
		"perspective":{
			"znear":0.009999999776482582,
			"zfar":10000000000.0,
			"aspectRatio":1.5,
			"yfov":0.6435011029243469
		}
	},
	{
		"type":"perspective",
		"perspective":{
			"znear":0.009999999776482582,
			"zfar":10000000000.0,
			"aspectRatio":1.5,
			"yfov":0.4710899591445923
		}
	},
	{
		"type":"perspective",
		"perspective":{
			"znear":0.009999999776482582,
			"zfar":10000000000.0,
			"aspectRatio":1.5,
			"yfov":0.4710899591445923
		}
	}],
	"accessors":[{
		"bufferView":0,
		"type":"SCALAR",
		"componentType":5123,
		"count":1914,
		"max":[1913],
		"byteOffset":0,
		"min":[0]
	},
	{
		"bufferView":1,
		"type":"VEC3",
		"componentType":5126,
		"count":1914,
		"max":[0.013809788972139359,
		0.011105448938906193,
		0.016525747254490854],
		"byteOffset":0,
		"min":[-0.10616237670183182,
		-0.011195629835128785,
		-0.016427161172032357]
	},
	{
		"bufferView":1,
		"type":"VEC3",
		"componentType":5126,
		"count":1914,
		"max":[0.9837254285812378,
		0.9986684322357178,
		0.9996814131736755],
		"byteOffset":12,
		"min":[-0.9955391883850098,
		-0.9999673962593079,
		-0.99934983253479]
	},
	{
		"bufferView":1,
		"type":"VEC2",
		"componentType":5126,
		"count":1914,
		"max":[1.0068988800048829,
		0.8604201078414917],
		"byteOffset":24,
		"min":[0.0031270557083189489,
		0.1207273006439209]
	},
	{
		"bufferView":2,
		"type":"SCALAR",
		"componentType":5126,
		"count":88,
		"max":[3.625],
		"byteOffset":0,
		"min":[0.0]
	},
	{
		"bufferView":2,
		"type":"VEC3",
		"componentType":5126,
		"count":88,
		"max":[0.0,
		0.0,
		0.008924858644604683],
		"byteOffset":352,
		"min":[0.0,
		-0.060170941054821017,
		-0.007922735996544361]
	},
	{
		"bufferView":3,
		"type":"SCALAR",
		"componentType":5126,
		"count":88,
		"max":[3.625],
		"byteOffset":0,
		"min":[0.0]
	},
	{
		"bufferView":3,
		"type":"VEC4",
		"componentType":5126,
		"count":88,
		"max":[0.04361271485686302,
		0.02453797124326229,
		0.017435813322663308,
		-0.9988547563552856],
		"byteOffset":352,
		"min":[-0.0411541685461998,
		-0.017261840403079988,
		-0.02412891946732998,
		-1.0]
	},
	{
		"bufferView":4,
		"type":"SCALAR",
		"componentType":5123,
		"count":19692,
		"max":[19691],
		"byteOffset":0,
		"min":[0]
	},
	{
		"bufferView":5,
		"type":"VEC3",
		"componentType":5126,
		"count":19692,
		"max":[0.20086337625980378,
		0.08524263650178909,
		0.01234391052275896],
		"byteOffset":0,
		"min":[-0.24544483423233033,
		-0.004507295321673155,
		-0.23510538041591645]
	},
	{
		"bufferView":5,
		"type":"VEC3",
		"componentType":5126,
		"count":19692,
		"max":[0.9962220788002014,
		0.9999625086784363,
		0.9997742176055908],
		"byteOffset":12,
		"min":[-0.9987220764160156,
		-0.9995987415313721,
		-0.9986932277679443]
	},
	{
		"bufferView":5,
		"type":"VEC2",
		"componentType":5126,
		"count":19692,
		"max":[1.286852478981018,
		0.9270491600036621],
		"byteOffset":24,
		"min":[0.00004083555904799141,
		0.059712886810302737]
	},
	{
		"bufferView":6,
		"type":"SCALAR",
		"componentType":5126,
		"count":88,
		"max":[3.625],
		"byteOffset":0,
		"min":[0.0]
	},
	{
		"bufferView":6,
		"type":"VEC4",
		"componentType":5126,
		"count":88,
		"max":[0.30070579051971438,
		2.0667695332932113e-10,
		6.414963368448976e-14,
		-0.9333195686340332],
		"byteOffset":352,
		"min":[-0.3590467870235443,
		-1.4481840726610074e-10,
		-7.950835129166833e-11,
		-0.9999850988388062]
	},
	{
		"bufferView":7,
		"type":"SCALAR",
		"componentType":5123,
		"count":1752,
		"max":[1751],
		"byteOffset":0,
		"min":[0]
	},
	{
		"bufferView":8,
		"type":"VEC3",
		"componentType":5126,
		"count":1752,
		"max":[0.10603532195091248,
		0.0021326502319425346,
		0.052909981459379199],
		"byteOffset":0,
		"min":[0.008355746045708657,
		-0.008018841966986657,
		0.0029617520049214365]
	},
	{
		"bufferView":8,
		"type":"VEC3",
		"componentType":5126,
		"count":1752,
		"max":[0.9890324473381043,
		0.9996560215950012,
		0.9971256852149963],
		"byteOffset":12,
		"min":[-0.9969976544380188,
		-0.9992546439170837,
		-0.9848378300666809]
	},
	{
		"bufferView":9,
		"type":"SCALAR",
		"componentType":5123,
		"count":29538,
		"max":[29537],
		"byteOffset":0,
		"min":[0]
	},
	{
		"bufferView":10,
		"type":"VEC3",
		"componentType":5126,
		"count":29538,
		"max":[0.20086927711963654,
		0.08510967344045639,
		0.23508398234844209],
		"byteOffset":0,
		"min":[-0.24533508718013764,
		-0.004491707310080528,
		-0.012423770502209664]
	},
	{
		"bufferView":10,
		"type":"VEC3",
		"componentType":5126,
		"count":29538,
		"max":[0.9954774975776672,
		0.9999333024024963,
		0.9989331960678101],
		"byteOffset":12,
		"min":[-0.9999551177024841,
		-0.999867856502533,
		-0.9986739158630371]
	},
	{
		"bufferView":10,
		"type":"VEC2",
		"componentType":5126,
		"count":29538,
		"max":[1.0135058164596558,
		0.7317148447036743],
		"byteOffset":24,
		"min":[0.0016526171239092947,
		0.04529869556427002]
	},
	{
		"bufferView":11,
		"type":"SCALAR",
		"componentType":5126,
		"count":88,
		"max":[3.625],
		"byteOffset":0,
		"min":[0.0]
	},
	{
		"bufferView":11,
		"type":"VEC4",
		"componentType":5126,
		"count":88,
		"max":[0.3590468168258667,
		1.7350593184417563e-10,
		1.677961426489044e-13,
		-0.9333195686340332],
		"byteOffset":352,
		"min":[-0.30070579051971438,
		-1.8068870011322958e-10,
		-6.951070968819195e-11,
		-0.9999850988388062]
	},
	{
		"bufferView":12,
		"type":"SCALAR",
		"componentType":5123,
		"count":1752,
		"max":[1751],
		"byteOffset":0,
		"min":[0]
	},
	{
		"bufferView":13,
		"type":"VEC3",
		"componentType":5126,
		"count":1752,
		"max":[0.10605305433273316,
		0.0021025831811130049,
		-0.002828202210366726],
		"byteOffset":0,
		"min":[0.008360224775969983,
		-0.007894369773566723,
		-0.05288058891892433]
	},
	{
		"bufferView":13,
		"type":"VEC3",
		"componentType":5126,
		"count":1752,
		"max":[0.9890541434288025,
		0.9985411167144775,
		0.9867016077041626],
		"byteOffset":12,
		"min":[-0.9934435486793518,
		-0.9988358616828919,
		-0.9881648421287537]
	}],
	"bufferViews":[{
		"buffer":0,
		"byteOffset":0,
		"byteLength":3828,
		"target":34963
	},
	{
		"buffer":0,
		"byteOffset":3828,
		"byteLength":61248,
		"target":34962,
		"byteStride":32
	},
	{
		"buffer":1,
		"byteOffset":0,
		"byteLength":1408
	},
	{
		"buffer":1,
		"byteOffset":1408,
		"byteLength":1760
	},
	{
		"buffer":2,
		"byteOffset":0,
		"byteLength":39384,
		"target":34963
	},
	{
		"buffer":2,
		"byteOffset":39384,
		"byteLength":630144,
		"target":34962,
		"byteStride":32
	},
	{
		"buffer":3,
		"byteOffset":0,
		"byteLength":1760
	},
	{
		"buffer":4,
		"byteOffset":0,
		"byteLength":3504,
		"target":34963
	},
	{
		"buffer":4,
		"byteOffset":3504,
		"byteLength":42048,
		"target":34962,
		"byteStride":24
	},
	{
		"buffer":5,
		"byteOffset":0,
		"byteLength":59076,
		"target":34963
	},
	{
		"buffer":5,
		"byteOffset":59076,
		"byteLength":945216,
		"target":34962,
		"byteStride":32
	},
	{
		"buffer":6,
		"byteOffset":0,
		"byteLength":1760
	},
	{
		"buffer":7,
		"byteOffset":0,
		"byteLength":3504,
		"target":34963
	},
	{
		"buffer":7,
		"byteOffset":3504,
		"byteLength":42048,
		"target":34962,
		"byteStride":24
	}],
	"buffers":[{
		"uri":"data:application/octet-stream;base64,",
		"byteLength":65076
	},
	{
		"uri":"data:application/octet-stream;base64,",
		"byteLength":3168
	},
	{
		"uri":"data:application/octet-stream;base64,",
		"byteLength":669528
	},
	{
		"uri":"data:application/octet-stream;base64,",
		"byteLength":1760
	},
	{
		"uri":"data:application/octet-stream;base64,",
		"byteLength":45552
	},
	{
		"uri":"data:application/octet-stream;base64,",
		"byteLength":1004292
	},
	{
		"uri":"data:application/octet-stream;base64,",
		"byteLength":1760
	},
	{
		"uri":"data:application/octet-stream;base64,",
		"byteLength":45552
	}],
	"materials":[{
		"pbrMetallicRoughness":{
			"baseColorFactor":[0.800000011920929,
			0.800000011920929,
			0.800000011920929,
			1.0],
			"metallicFactor":0.0,
			"roughnessFactor":0.366015000189267
		},
		"emissiveFactor":[0.0,
		0.0,
		0.0],
		"alphaMode":"OPAQUE",
		"doubleSided":false,
		"name":"材质"
	}],
	"animations":[{
		"samplers":[{
			"input":4,
			"interpolation":"LINEAR",
			"output":5
		},
		{
			"input":6,
			"interpolation":"LINEAR",
			"output":7
		},
		{
			"input":12,
			"interpolation":"LINEAR",
			"output":13
		},
		{
			"input":21,
			"interpolation":"LINEAR",
			"output":22
		}],
		"channels":[{
			"sampler":0,
			"target":{
				"node":0,
				"path":"translation"
			}
		},
		{
			"sampler":1,
			"target":{
				"node":0,
				"path":"rotation"
			}
		},
		{
			"sampler":2,
			"target":{
				"node":1,
				"path":"rotation"
			}
		},
		{
			"sampler":3,
			"target":{
				"node":3,
				"path":"rotation"
			}
		}]
	}]
}